<?xml version="1.0" encoding="UTF-8" standalone="no"?><!DOCTYPE svg PUBLIC "-//W3C//DTD SVG 1.1//EN" "http://www.w3.org/Graphics/SVG/1.1/DTD/svg11.dtd"><svg width="100%" height="100%" viewBox="0 0 53054 13422" version="1.1" xmlns="http://www.w3.org/2000/svg" xmlns:xlink="http://www.w3.org/1999/xlink" xml:space="preserve" xmlns:serif="http://www.serif.com/" style="fill-rule:evenodd;clip-rule:evenodd;stroke-linecap:round;stroke-linejoin:round;stroke-miterlimit:1.5;"><rect id="Mesa-de-trabajo4" serif:id="Mesa de trabajo4" x="0" y="0" width="53053.667" height="13421.735" style="fill:none;"/><g><g><g><path d="M7374.384,12294.378c-3081.624,0 -5583.509,-2501.885 -5583.509,-5583.509c0,-3081.624 2501.885,-5583.509 5583.509,-5583.509c3081.615,-0 5583.509,2501.885 5583.509,5583.509c0,1155.792 -351.942,2230.027 -954.409,3121.308c0.716,-1.032 1.423,-2.073 2.13,-3.114c601.12,-890.698 952.279,-1963.759 952.279,-3118.194c0,-3081.624 -2501.894,-5583.509 -5583.509,-5583.509c-3081.624,-0 -5583.509,2501.885 -5583.509,5583.509c0,3081.624 2501.885,5583.509 5583.509,5583.509c469.954,0 926.428,-58.237 1362.601,-167.803c162.797,-40.898 261.769,-206.264 220.871,-369.062c-40.898,-162.797 -206.264,-261.769 -369.062,-220.871c-388.732,97.653 -795.567,149.48 -1214.411,149.48c-2745.913,0 -4975.253,-2229.34 -4975.253,-4975.253c0,-2745.913 2229.34,-4975.253 4975.253,-4975.253c2745.913,-0 4975.243,2229.34 4975.243,4975.253c0,1028.447 -312.678,1984.442 -848.196,2777.926c-0.669,0.984 -1.318,1.978 -1.978,2.962c536.683,-794.105 850.173,-1751.17 850.173,-2780.888c0,-2745.913 -2229.33,-4975.253 -4975.243,-4975.253c-2745.913,-0 -4975.253,2229.34 -4975.253,4975.253c0,2745.913 2229.34,4975.253 4975.253,4975.253c1716.196,0 3230.607,-870.847 4125.07,-2194.365c0.659,-0.984 1.309,-1.978 1.978,-2.962c535.518,-793.484 848.196,-1749.479 848.196,-2777.926c0,1029.717 -313.49,1986.782 -850.173,2780.888c-91.396,138.847 -54.215,326.034 83.935,419.264c138.092,93.192 325.489,57.721 420.095,-78.843c602.467,-891.281 954.409,-1965.517 954.409,-3121.308c0,1154.435 -351.159,2227.496 -952.279,3118.194c-0.707,1.041 -1.414,2.083 -2.13,3.114c-1003.857,1485.083 -2703.267,2462.2 -4629.1,2462.2Z" style="fill:#d59b34;"/></g><g><path d="M5161.117,2553.073c659.98,-352.341 1413.472,-552.124 2213.269,-552.124c2599.471,0 4709.913,2110.45 4709.913,4709.921c0,2599.471 -2110.441,4709.921 -4709.913,4709.921c-2599.48,0 -4709.921,-2110.45 -4709.921,-4709.921c0,-871.652 237.3,-1688.324 650.758,-2388.881" style="fill:none;stroke:#d59b34;stroke-width:608.27px;"/></g><g><path d="M7351.224,883.575c7.719,-0.032 15.427,-0.053 23.156,-0.053c3216.193,0 5827.335,2611.152 5827.335,5827.346c0,3216.193 -2611.142,5827.346 -5827.335,5827.346c-3216.204,0 -5827.346,-2611.152 -5827.346,-5827.346c0,-1281.903 414.812,-2467.69 1117.425,-3430.327" style="fill:none;stroke:#d59b34;stroke-width:608.23px;"/></g></g><g><g><text x="15883.88px" y="8417.255px" style="font-family:'Montserrat-SemiBold', 'Montserrat';font-weight:600;font-size:6127.065px;fill:#021c40;">ORQUES</text><text x="43412.781px" y="8417.255px" style="font-family:'Montserrat-SemiBold', 'Montserrat';font-weight:600;font-size:6127.065px;fill:#021c40;">T<tspan x="46886.825px " y="8417.255px ">A</tspan></text></g></g></g></svg>