<?xml version="1.0" encoding="UTF-8" standalone="no"?><!DOCTYPE svg PUBLIC "-//W3C//DTD SVG 1.1//EN" "http://www.w3.org/Graphics/SVG/1.1/DTD/svg11.dtd"><svg width="100%" height="100%" viewBox="0 0 20671 20671" version="1.1" xmlns="http://www.w3.org/2000/svg" xmlns:xlink="http://www.w3.org/1999/xlink" xml:space="preserve" xmlns:serif="http://www.serif.com/" style="fill-rule:evenodd;clip-rule:evenodd;stroke-linecap:round;stroke-linejoin:round;stroke-miterlimit:1.5;"><rect id="Mesa-de-trabajo3" serif:id="Mesa de trabajo3" x="0" y="0" width="20670.833" height="20670.833" style="fill:none;"/><clipPath id="_clip1"><rect id="Mesa-de-trabajo31" serif:id="Mesa de trabajo3" x="0" y="0" width="20670.833" height="20670.833"/></clipPath><g clip-path="url(#_clip1)"><g><g id="Mesa-de-trabajo2" serif:id="Mesa de trabajo2"><rect x="-0.002" y="0" width="20669.292" height="20669.292" style="fill:none;"/><g><g><g><g><path d="M10335.423,13074.254c-2594.03,0 -4700.051,-2106.021 -4700.051,-4700.051c0,-2594.03 2106.021,-4700.051 4700.051,-4700.051c2594.022,0 4700.051,2106.021 4700.051,4700.051c0,972.915 -296.256,1877.178 -803.396,2627.435c0.603,-0.869 1.198,-1.745 1.793,-2.622c506.007,-749.766 801.603,-1653.04 801.603,-2624.814c0,-2594.03 -2106.029,-4700.051 -4700.051,-4700.051c-2594.03,0 -4700.051,2106.021 -4700.051,4700.051c0,2594.03 2106.021,4700.051 4700.051,4700.051c395.595,0 779.842,-49.022 1147.001,-141.252c137.038,-34.426 220.35,-173.628 185.924,-310.666c-34.426,-137.038 -173.628,-220.35 -310.666,-185.924c-327.224,82.202 -669.687,125.828 -1022.259,125.828c-2311.437,0 -4188.037,-1876.599 -4188.037,-4188.037c0,-2311.437 1876.599,-4188.037 4188.037,-4188.037c2311.437,0 4188.029,1876.599 4188.029,4188.037c0,865.719 -263.204,1670.451 -713.989,2338.385c-0.563,0.828 -1.11,1.665 -1.665,2.493c451.766,-668.457 715.654,-1474.089 715.654,-2340.878c0,-2311.437 -1876.591,-4188.037 -4188.029,-4188.037c-2311.437,0 -4188.037,1876.599 -4188.037,4188.037c0,2311.437 1876.599,4188.037 4188.037,4188.037c1444.648,0 2719.44,-733.056 3472.375,-1847.159c0.555,-0.828 1.102,-1.665 1.665,-2.493c450.785,-667.934 713.989,-1472.666 713.989,-2338.385c0,866.789 -263.888,1672.421 -715.654,2340.878c-76.935,116.878 -45.637,274.447 70.654,352.925c116.243,78.447 273.988,48.588 353.625,-66.368c507.141,-750.257 803.396,-1654.52 803.396,-2627.435c0,971.773 -295.596,1875.047 -801.603,2624.814c-0.595,0.877 -1.19,1.753 -1.793,2.622c-845.02,1250.104 -2275.539,2072.615 -3896.654,2072.615Z" style="fill:#d59b34;"/></g><g><path d="M8472.352,4874.28c555.554,-296.591 1189.824,-464.763 1863.072,-464.763c2188.166,0 3964.68,1776.521 3964.68,3964.688c0,2188.166 -1776.514,3964.688 -3964.68,3964.688c-2188.174,0 -3964.688,-1776.521 -3964.688,-3964.688c0,-733.734 199.753,-1421.187 547.791,-2010.897" style="fill:none;stroke:#d59b34;stroke-width:512.03px;"/></g><g><path d="M10315.927,3468.94c6.497,-0.027 12.986,-0.044 19.492,-0.044c2707.307,0 4905.297,2197.999 4905.297,4905.306c0,2707.307 -2197.99,4905.306 -4905.297,4905.306c-2707.316,0 -4905.306,-2197.999 -4905.306,-4905.306c0,-1079.072 349.178,-2077.236 940.619,-2887.559" style="fill:none;stroke:#d59b34;stroke-width:511.99px;"/></g></g></g><g><g><g transform="matrix(2696.841482,0,0,2696.841482,19175.663043,16789.321132)"></g><text x="1363.025px" y="16789.321px" style="font-family:'Montserrat-SemiBold', 'Montserrat';font-weight:600;font-size:2696.841px;fill:#fff;">ORQUES<tspan x="13479.934px " y="16789.321px ">T</tspan>BA</text></g></g></g></g></g></g></svg>