<?xml version="1.0" encoding="UTF-8" standalone="no"?>
<!DOCTYPE svg PUBLIC "-//W3C//DTD SVG 1.1//EN" "http://www.w3.org/Graphics/SVG/1.1/DTD/svg11.dtd">
<svg width="100%" height="100%" viewBox="0 0 4961 4961" version="1.1" xmlns="http://www.w3.org/2000/svg" xmlns:xlink="http://www.w3.org/1999/xlink" xml:space="preserve" xmlns:serif="http://www.serif.com/" style="fill-rule:evenodd;clip-rule:evenodd;stroke-linecap:round;stroke-linejoin:round;stroke-miterlimit:1.5;">
    <g id="Mesa-de-trabajo1" serif:id="Mesa de trabajo1" transform="matrix(1,0,0,1,-3974.314865,0)">
        <rect x="3974.315" y="0" width="4960.63" height="4960.63" style="fill:none;"/>
        <g transform="matrix(2.561738,0,0,2.561738,3277.671516,3.387082)">
            <g transform="matrix(0.765678,0,0,0.765678,325.44296,17.332821)">
                <g transform="matrix(1.636029,0,0,1.636029,-1087.087603,209.470716)">
                    <path d="M1394.679,1214.454C1072.106,1214.454 810.218,952.566 810.218,629.993C810.218,307.42 1072.106,45.532 1394.679,45.532C1717.251,45.532 1979.14,307.42 1979.14,629.993C1979.14,750.977 1942.3,863.424 1879.236,956.72C1879.311,956.612 1879.385,956.503 1879.459,956.394C1942.382,863.159 1979.14,750.835 1979.14,629.993C1979.14,307.42 1717.251,45.532 1394.679,45.532C1072.106,45.532 810.218,307.42 810.218,629.993C810.218,952.566 1072.106,1214.454 1394.679,1214.454C1443.872,1214.454 1491.654,1208.358 1537.311,1196.889C1554.352,1192.608 1564.712,1175.298 1560.431,1158.257C1556.15,1141.216 1538.84,1130.856 1521.799,1135.137C1481.108,1145.359 1438.522,1150.784 1394.679,1150.784C1107.247,1150.784 873.888,917.425 873.888,629.993C873.888,342.561 1107.247,109.202 1394.679,109.202C1682.111,109.202 1915.469,342.561 1915.469,629.993C1915.469,737.647 1882.739,837.717 1826.683,920.776C1826.613,920.879 1826.545,920.983 1826.476,921.086C1882.654,837.962 1915.469,737.78 1915.469,629.993C1915.469,342.561 1682.111,109.202 1394.679,109.202C1107.247,109.202 873.888,342.561 873.888,629.993C873.888,917.425 1107.247,1150.784 1394.679,1150.784C1574.324,1150.784 1732.847,1059.627 1826.476,921.086C1826.545,920.983 1826.613,920.879 1826.683,920.776C1882.739,837.717 1915.469,737.647 1915.469,629.993C1915.469,737.78 1882.654,837.962 1826.476,921.086C1816.909,935.62 1820.801,955.214 1835.262,964.973C1849.717,974.728 1869.333,971.015 1879.236,956.72C1942.3,863.424 1979.14,750.977 1979.14,629.993C1979.14,750.835 1942.382,863.159 1879.459,956.394C1879.385,956.503 1879.311,956.612 1879.236,956.72C1774.156,1112.173 1596.268,1214.454 1394.679,1214.454Z" style="fill:rgb(213,155,52);"/>
                </g>
                <g transform="matrix(1.459559,0,0,1.459559,-840.96839,320.645696)">
                    <path d="M1134.991,142.149C1212.428,100.808 1300.837,77.367 1394.679,77.367C1699.681,77.367 1947.304,324.991 1947.304,629.993C1947.304,934.995 1699.681,1182.619 1394.679,1182.619C1089.676,1182.619 842.053,934.995 842.053,629.993C842.053,527.72 869.896,431.898 918.408,349.7" style="fill:none;stroke:rgb(213,155,52);stroke-width:71.37px;"/>
                </g>
                <g transform="matrix(1.805838,0,0,1.805838,-1323.917325,102.491908)">
                    <path d="M1392.483,77.372C1393.215,77.369 1393.946,77.367 1394.679,77.367C1699.681,77.367 1947.304,324.991 1947.304,629.993C1947.304,934.995 1699.681,1182.619 1394.679,1182.619C1089.676,1182.619 842.053,934.995 842.053,629.993C842.053,508.426 881.391,395.974 948.022,304.684" style="fill:none;stroke:rgb(213,155,52);stroke-width:57.68px;"/>
                </g>
            </g>
        </g>
    </g>
</svg>
